%TF.GenerationSoftware,KiCad,Pcbnew,(7.0.0)*%
%TF.CreationDate,2024-11-23T19:37:02-06:00*%
%TF.ProjectId,VP44expSwdriver,56503434-6578-4705-9377-647269766572,rev?*%
%TF.SameCoordinates,Original*%
%TF.FileFunction,Legend,Bot*%
%TF.FilePolarity,Positive*%
%FSLAX46Y46*%
G04 Gerber Fmt 4.6, Leading zero omitted, Abs format (unit mm)*
G04 Created by KiCad (PCBNEW (7.0.0)) date 2024-11-23 19:37:02*
%MOMM*%
%LPD*%
G01*
G04 APERTURE LIST*
%ADD10C,0.150000*%
%ADD11C,0.120000*%
G04 APERTURE END LIST*
D10*
X177402618Y-120971380D02*
X177402618Y-119971380D01*
X177402618Y-119971380D02*
X176831190Y-120971380D01*
X176831190Y-120971380D02*
X176831190Y-119971380D01*
X175926428Y-120304714D02*
X175926428Y-120971380D01*
X176354999Y-120304714D02*
X176354999Y-120828523D01*
X176354999Y-120828523D02*
X176307380Y-120923761D01*
X176307380Y-120923761D02*
X176212142Y-120971380D01*
X176212142Y-120971380D02*
X176069285Y-120971380D01*
X176069285Y-120971380D02*
X175974047Y-120923761D01*
X175974047Y-120923761D02*
X175926428Y-120876142D01*
X175593094Y-119971380D02*
X175259761Y-120971380D01*
X175259761Y-120971380D02*
X174926428Y-119971380D01*
X174593094Y-120971380D02*
X174593094Y-119971380D01*
X174593094Y-119971380D02*
X174212142Y-119971380D01*
X174212142Y-119971380D02*
X174116904Y-120019000D01*
X174116904Y-120019000D02*
X174069285Y-120066619D01*
X174069285Y-120066619D02*
X174021666Y-120161857D01*
X174021666Y-120161857D02*
X174021666Y-120304714D01*
X174021666Y-120304714D02*
X174069285Y-120399952D01*
X174069285Y-120399952D02*
X174116904Y-120447571D01*
X174116904Y-120447571D02*
X174212142Y-120495190D01*
X174212142Y-120495190D02*
X174593094Y-120495190D01*
X173164523Y-120304714D02*
X173164523Y-120971380D01*
X173402618Y-119923761D02*
X173640713Y-120638047D01*
X173640713Y-120638047D02*
X173021666Y-120638047D01*
X172212142Y-120304714D02*
X172212142Y-120971380D01*
X172450237Y-119923761D02*
X172688332Y-120638047D01*
X172688332Y-120638047D02*
X172069285Y-120638047D01*
X171926428Y-121066619D02*
X171164523Y-121066619D01*
X170974046Y-120923761D02*
X170831189Y-120971380D01*
X170831189Y-120971380D02*
X170593094Y-120971380D01*
X170593094Y-120971380D02*
X170497856Y-120923761D01*
X170497856Y-120923761D02*
X170450237Y-120876142D01*
X170450237Y-120876142D02*
X170402618Y-120780904D01*
X170402618Y-120780904D02*
X170402618Y-120685666D01*
X170402618Y-120685666D02*
X170450237Y-120590428D01*
X170450237Y-120590428D02*
X170497856Y-120542809D01*
X170497856Y-120542809D02*
X170593094Y-120495190D01*
X170593094Y-120495190D02*
X170783570Y-120447571D01*
X170783570Y-120447571D02*
X170878808Y-120399952D01*
X170878808Y-120399952D02*
X170926427Y-120352333D01*
X170926427Y-120352333D02*
X170974046Y-120257095D01*
X170974046Y-120257095D02*
X170974046Y-120161857D01*
X170974046Y-120161857D02*
X170926427Y-120066619D01*
X170926427Y-120066619D02*
X170878808Y-120019000D01*
X170878808Y-120019000D02*
X170783570Y-119971380D01*
X170783570Y-119971380D02*
X170545475Y-119971380D01*
X170545475Y-119971380D02*
X170402618Y-120019000D01*
X170069284Y-119971380D02*
X169831189Y-120971380D01*
X169831189Y-120971380D02*
X169640713Y-120257095D01*
X169640713Y-120257095D02*
X169450237Y-120971380D01*
X169450237Y-120971380D02*
X169212142Y-119971380D01*
X174069285Y-122305666D02*
X173593095Y-122305666D01*
X174164523Y-122591380D02*
X173831190Y-121591380D01*
X173831190Y-121591380D02*
X173497857Y-122591380D01*
X173212142Y-121686619D02*
X173164523Y-121639000D01*
X173164523Y-121639000D02*
X173069285Y-121591380D01*
X173069285Y-121591380D02*
X172831190Y-121591380D01*
X172831190Y-121591380D02*
X172735952Y-121639000D01*
X172735952Y-121639000D02*
X172688333Y-121686619D01*
X172688333Y-121686619D02*
X172640714Y-121781857D01*
X172640714Y-121781857D02*
X172640714Y-121877095D01*
X172640714Y-121877095D02*
X172688333Y-122019952D01*
X172688333Y-122019952D02*
X173259761Y-122591380D01*
X173259761Y-122591380D02*
X172640714Y-122591380D01*
X180482904Y-105478142D02*
X180435285Y-105525761D01*
X180435285Y-105525761D02*
X180482904Y-105573380D01*
X180482904Y-105573380D02*
X180530523Y-105525761D01*
X180530523Y-105525761D02*
X180482904Y-105478142D01*
X180482904Y-105478142D02*
X180482904Y-105573380D01*
%TO.C,U2*%
X186181904Y-106272380D02*
X186181904Y-107081904D01*
X186181904Y-107081904D02*
X186134285Y-107177142D01*
X186134285Y-107177142D02*
X186086666Y-107224761D01*
X186086666Y-107224761D02*
X185991428Y-107272380D01*
X185991428Y-107272380D02*
X185800952Y-107272380D01*
X185800952Y-107272380D02*
X185705714Y-107224761D01*
X185705714Y-107224761D02*
X185658095Y-107177142D01*
X185658095Y-107177142D02*
X185610476Y-107081904D01*
X185610476Y-107081904D02*
X185610476Y-106272380D01*
X185181904Y-106367619D02*
X185134285Y-106320000D01*
X185134285Y-106320000D02*
X185039047Y-106272380D01*
X185039047Y-106272380D02*
X184800952Y-106272380D01*
X184800952Y-106272380D02*
X184705714Y-106320000D01*
X184705714Y-106320000D02*
X184658095Y-106367619D01*
X184658095Y-106367619D02*
X184610476Y-106462857D01*
X184610476Y-106462857D02*
X184610476Y-106558095D01*
X184610476Y-106558095D02*
X184658095Y-106700952D01*
X184658095Y-106700952D02*
X185229523Y-107272380D01*
X185229523Y-107272380D02*
X184610476Y-107272380D01*
D11*
X185420000Y-100945000D02*
X183470000Y-100945000D01*
X185420000Y-100945000D02*
X187370000Y-100945000D01*
X185420000Y-106065000D02*
X181970000Y-106065000D01*
X185420000Y-106065000D02*
X187370000Y-106065000D01*
%TD*%
M02*
