%TF.GenerationSoftware,KiCad,Pcbnew,(7.0.0)*%
%TF.CreationDate,2024-11-23T19:37:02-06:00*%
%TF.ProjectId,VP44expSwdriver,56503434-6578-4705-9377-647269766572,rev?*%
%TF.SameCoordinates,Original*%
%TF.FileFunction,Copper,L1,Top*%
%TF.FilePolarity,Positive*%
%FSLAX46Y46*%
G04 Gerber Fmt 4.6, Leading zero omitted, Abs format (unit mm)*
G04 Created by KiCad (PCBNEW (7.0.0)) date 2024-11-23 19:37:02*
%MOMM*%
%LPD*%
G01*
G04 APERTURE LIST*
G04 Aperture macros list*
%AMRoundRect*
0 Rectangle with rounded corners*
0 $1 Rounding radius*
0 $2 $3 $4 $5 $6 $7 $8 $9 X,Y pos of 4 corners*
0 Add a 4 corners polygon primitive as box body*
4,1,4,$2,$3,$4,$5,$6,$7,$8,$9,$2,$3,0*
0 Add four circle primitives for the rounded corners*
1,1,$1+$1,$2,$3*
1,1,$1+$1,$4,$5*
1,1,$1+$1,$6,$7*
1,1,$1+$1,$8,$9*
0 Add four rect primitives between the rounded corners*
20,1,$1+$1,$2,$3,$4,$5,0*
20,1,$1+$1,$4,$5,$6,$7,0*
20,1,$1+$1,$6,$7,$8,$9,0*
20,1,$1+$1,$8,$9,$2,$3,0*%
G04 Aperture macros list end*
%TA.AperFunction,ComponentPad*%
%ADD10R,1.600000X1.600000*%
%TD*%
%TA.AperFunction,ComponentPad*%
%ADD11O,1.600000X1.600000*%
%TD*%
%TA.AperFunction,ComponentPad*%
%ADD12C,1.400000*%
%TD*%
%TA.AperFunction,ComponentPad*%
%ADD13O,1.400000X1.400000*%
%TD*%
%TA.AperFunction,ComponentPad*%
%ADD14R,3.200000X3.200000*%
%TD*%
%TA.AperFunction,ComponentPad*%
%ADD15O,3.200000X3.200000*%
%TD*%
%TA.AperFunction,ComponentPad*%
%ADD16C,1.600000*%
%TD*%
%TA.AperFunction,ComponentPad*%
%ADD17RoundRect,0.250002X-1.699998X-1.699998X1.699998X-1.699998X1.699998X1.699998X-1.699998X1.699998X0*%
%TD*%
%TA.AperFunction,ComponentPad*%
%ADD18C,2.200000*%
%TD*%
%TA.AperFunction,ComponentPad*%
%ADD19R,2.200000X2.200000*%
%TD*%
%TA.AperFunction,ComponentPad*%
%ADD20O,2.200000X2.200000*%
%TD*%
%TA.AperFunction,ComponentPad*%
%ADD21R,2.000000X1.905000*%
%TD*%
%TA.AperFunction,ComponentPad*%
%ADD22O,2.000000X1.905000*%
%TD*%
%TA.AperFunction,ComponentPad*%
%ADD23R,1.700000X1.700000*%
%TD*%
%TA.AperFunction,ComponentPad*%
%ADD24O,1.700000X1.700000*%
%TD*%
%TA.AperFunction,ComponentPad*%
%ADD25R,4.000000X4.000000*%
%TD*%
%TA.AperFunction,ComponentPad*%
%ADD26C,2.400000*%
%TD*%
%TA.AperFunction,ComponentPad*%
%ADD27O,2.400000X2.400000*%
%TD*%
%TA.AperFunction,ViaPad*%
%ADD28C,0.600000*%
%TD*%
%TA.AperFunction,Conductor*%
%ADD29C,0.406400*%
%TD*%
%TA.AperFunction,Conductor*%
%ADD30C,0.203200*%
%TD*%
%TA.AperFunction,Conductor*%
%ADD31C,1.270000*%
%TD*%
%TA.AperFunction,Conductor*%
%ADD32C,0.635000*%
%TD*%
G04 APERTURE END LIST*
D10*
%TO.P,U1,1,ENA*%
%TO.N,Net-(U1-ENA)*%
X180339999Y-59054999D03*
D11*
%TO.P,U1,2,INA*%
%TO.N,Net-(J5-Pin_1)*%
X177799999Y-59054999D03*
%TO.P,U1,3,GND*%
%TO.N,GND*%
X175259999Y-59054999D03*
%TO.P,U1,4,INB*%
%TO.N,Net-(J5-Pin_2)*%
X172719999Y-59054999D03*
%TO.P,U1,5,OUTB*%
%TO.N,Net-(U1-OUTB)*%
X172719999Y-66674999D03*
%TO.P,U1,6,V+*%
%TO.N,+12V*%
X175259999Y-66674999D03*
%TO.P,U1,7,OUTA*%
%TO.N,Net-(U1-OUTA)*%
X177799999Y-66674999D03*
%TO.P,U1,8,ENB*%
%TO.N,Net-(U1-ENA)*%
X180339999Y-66674999D03*
%TD*%
D12*
%TO.P,R3,1*%
%TO.N,Net-(U1-OUTA)*%
X154940000Y-110490000D03*
D13*
%TO.P,R3,2*%
%TO.N,GND*%
X147319999Y-110489999D03*
%TD*%
D14*
%TO.P,D4,1,K*%
%TO.N,Net-(D4-K)*%
X180339999Y-134619999D03*
D15*
%TO.P,D4,2,A*%
%TO.N,GND*%
X165099999Y-134619999D03*
%TD*%
D16*
%TO.P,F3,1*%
%TO.N,Net-(Q4-D)*%
X155020000Y-71120000D03*
%TO.P,F3,2*%
%TO.N,Net-(J3-Pin_1)*%
X160020000Y-71120000D03*
%TD*%
D17*
%TO.P,J2,1,Pin_1*%
%TO.N,Net-(J2-Pin_1)*%
X160655000Y-41910000D03*
%TD*%
D16*
%TO.P,C14,1*%
%TO.N,Net-(U2-FILTER)*%
X190500000Y-97536000D03*
%TO.P,C14,2*%
%TO.N,GND*%
X185500000Y-97536000D03*
%TD*%
%TO.P,C1,1*%
%TO.N,GND*%
X184048400Y-48971200D03*
%TO.P,C1,2*%
%TO.N,+12V*%
X179048400Y-48971200D03*
%TD*%
D18*
%TO.P,C11,1*%
%TO.N,Net-(Q3-D)*%
X166490000Y-120650000D03*
%TO.P,C11,2*%
%TO.N,GND*%
X181490000Y-120650000D03*
%TD*%
D10*
%TO.P,C7,1*%
%TO.N,Net-(D3-K)*%
X179069999Y-83779999D03*
D16*
%TO.P,C7,2*%
%TO.N,GND*%
X179070000Y-78780000D03*
%TD*%
%TO.P,C13,1*%
%TO.N,+5V*%
X192024000Y-109768000D03*
%TO.P,C13,2*%
%TO.N,GND*%
X192024000Y-114768000D03*
%TD*%
%TO.P,R6,1*%
%TO.N,Net-(D3-K)*%
X191770000Y-118110000D03*
D11*
%TO.P,R6,2*%
%TO.N,Net-(Q3-D)*%
X191769999Y-133349999D03*
%TD*%
D19*
%TO.P,D2,1,K*%
%TO.N,Net-(D2-K)*%
X159384999Y-53339999D03*
D20*
%TO.P,D2,2,A*%
%TO.N,GND*%
X169544999Y-53339999D03*
%TD*%
D16*
%TO.P,C4,1*%
%TO.N,+12V*%
X178435000Y-73660000D03*
%TO.P,C4,2*%
%TO.N,GND*%
X183435000Y-73660000D03*
%TD*%
%TO.P,C5,1*%
%TO.N,GND*%
X164465000Y-57150000D03*
%TO.P,C5,2*%
%TO.N,Net-(D2-K)*%
X159465000Y-57150000D03*
%TD*%
D12*
%TO.P,R11,1*%
%TO.N,+5V*%
X189992000Y-80010000D03*
D13*
%TO.P,R11,2*%
%TO.N,Net-(U2-FILTER)*%
X189991999Y-87629999D03*
%TD*%
D18*
%TO.P,C10,1*%
%TO.N,Net-(Q3-D)*%
X166624000Y-112776000D03*
%TO.P,C10,2*%
%TO.N,GND*%
X181624000Y-112776000D03*
%TD*%
D21*
%TO.P,Q2,1,G*%
%TO.N,Net-(Q2-G)*%
X148518999Y-103885999D03*
D22*
%TO.P,Q2,2,D*%
%TO.N,Net-(Q2-D)*%
X148518999Y-101345999D03*
%TO.P,Q2,3,S*%
%TO.N,GND*%
X148518999Y-98805999D03*
%TD*%
D16*
%TO.P,C3,1*%
%TO.N,GND*%
X183515000Y-69850000D03*
%TO.P,C3,2*%
%TO.N,Net-(U1-ENA)*%
X178515000Y-69850000D03*
%TD*%
D10*
%TO.P,C6,1*%
%TO.N,Net-(D3-K)*%
X179069999Y-92593348D03*
D16*
%TO.P,C6,2*%
%TO.N,GND*%
X179070000Y-97593349D03*
%TD*%
D23*
%TO.P,J5,1,Pin_1*%
%TO.N,Net-(J5-Pin_1)*%
X189864999Y-47999999D03*
D24*
%TO.P,J5,2,Pin_2*%
%TO.N,Net-(J5-Pin_2)*%
X189864999Y-50539999D03*
%TO.P,J5,3,Pin_3*%
%TO.N,Net-(J5-Pin_3)*%
X189864999Y-53079999D03*
%TO.P,J5,4,Pin_4*%
%TO.N,Net-(J5-Pin_4)*%
X189864999Y-55619999D03*
%TO.P,J5,5,Pin_5*%
%TO.N,Net-(J5-Pin_5)*%
X189864999Y-58159999D03*
%TO.P,J5,6,Pin_6*%
%TO.N,unconnected-(J5-Pin_6-Pad6)*%
X189864999Y-60699999D03*
%TO.P,J5,7,Pin_7*%
%TO.N,+5V*%
X189864999Y-63239999D03*
%TO.P,J5,8,Pin_8*%
X189864999Y-65779999D03*
%TO.P,J5,9,Pin_9*%
%TO.N,GND*%
X189864999Y-68319999D03*
%TO.P,J5,10,Pin_10*%
X189864999Y-70859999D03*
%TO.P,J5,11,Pin_11*%
%TO.N,unconnected-(J5-Pin_11-Pad11)*%
X189864999Y-73399999D03*
%TO.P,J5,12,Pin_12*%
%TO.N,+12V*%
X189864999Y-75939999D03*
%TD*%
D12*
%TO.P,R8,1*%
%TO.N,Net-(J5-Pin_5)*%
X147320000Y-80010000D03*
D13*
%TO.P,R8,2*%
%TO.N,GND*%
X154939999Y-80009999D03*
%TD*%
D18*
%TO.P,C12,1*%
%TO.N,GND*%
X152520000Y-63500000D03*
%TO.P,C12,2*%
%TO.N,Net-(Q4-D)*%
X167520000Y-63500000D03*
%TD*%
D12*
%TO.P,R2,1*%
%TO.N,Net-(Q2-G)*%
X147320000Y-107950000D03*
D13*
%TO.P,R2,2*%
%TO.N,Net-(U1-OUTA)*%
X154939999Y-107949999D03*
%TD*%
D21*
%TO.P,D3,1,A*%
%TO.N,Net-(Q2-D)*%
X148589999Y-89153999D03*
D22*
%TO.P,D3,2,K*%
%TO.N,Net-(D3-K)*%
X148589999Y-86613999D03*
%TO.P,D3,3,A*%
%TO.N,Net-(Q2-D)*%
X148589999Y-84073999D03*
%TD*%
D17*
%TO.P,J3,1,Pin_1*%
%TO.N,Net-(J3-Pin_1)*%
X165100000Y-71120000D03*
%TD*%
D21*
%TO.P,Q3,1,G*%
%TO.N,Net-(Q3-G)*%
X148589999Y-119379999D03*
D22*
%TO.P,Q3,2,D*%
%TO.N,Net-(Q3-D)*%
X148589999Y-116839999D03*
%TO.P,Q3,3,S*%
%TO.N,Net-(Q3-S)*%
X148589999Y-114299999D03*
%TD*%
D17*
%TO.P,J1,1,Pin_1*%
%TO.N,GND*%
X154305000Y-93345000D03*
%TD*%
D25*
%TO.P,L1,1,1*%
%TO.N,Net-(Q3-S)*%
X170179999Y-88899999D03*
%TO.P,L1,2,2*%
%TO.N,Net-(Q2-D)*%
X160019999Y-88899999D03*
%TD*%
D16*
%TO.P,F2,1*%
%TO.N,Net-(J2-Pin_1)*%
X165775000Y-41910000D03*
%TO.P,F2,2*%
%TO.N,Net-(Q1-C)*%
X170775000Y-41910000D03*
%TD*%
D21*
%TO.P,Q4,1,G*%
%TO.N,Net-(Q4-G)*%
X148589999Y-73659999D03*
D22*
%TO.P,Q4,2,D*%
%TO.N,Net-(Q4-D)*%
X148589999Y-71119999D03*
%TO.P,Q4,3,S*%
%TO.N,GND*%
X148589999Y-68579999D03*
%TD*%
D12*
%TO.P,R13,1*%
%TO.N,Net-(J5-Pin_1)*%
X183083200Y-59690000D03*
D13*
%TO.P,R13,2*%
%TO.N,GND*%
X183083199Y-52069999D03*
%TD*%
D16*
%TO.P,R1,1*%
%TO.N,Net-(D1-K)*%
X155575000Y-43180000D03*
D11*
%TO.P,R1,2*%
%TO.N,Net-(D2-K)*%
X155574999Y-58419999D03*
%TD*%
D12*
%TO.P,R12,1*%
%TO.N,Net-(U2-FILTER)*%
X191262000Y-90932000D03*
D13*
%TO.P,R12,2*%
%TO.N,GND*%
X183641999Y-90931999D03*
%TD*%
D10*
%TO.P,C8,1*%
%TO.N,+5V*%
X186689999Y-43179999D03*
D16*
%TO.P,C8,2*%
%TO.N,GND*%
X184190000Y-43180000D03*
%TD*%
D12*
%TO.P,R14,1*%
%TO.N,Net-(J5-Pin_2)*%
X172821600Y-55930800D03*
D13*
%TO.P,R14,2*%
%TO.N,GND*%
X172821599Y-48310799D03*
%TD*%
D10*
%TO.P,D1,1,K*%
%TO.N,Net-(D1-K)*%
X161289999Y-46989999D03*
D11*
%TO.P,D1,2,A*%
%TO.N,+12V*%
X168909999Y-46989999D03*
%TD*%
D10*
%TO.P,C2,1*%
%TO.N,Net-(Q1-C)*%
X175259999Y-43179999D03*
D16*
%TO.P,C2,2*%
%TO.N,GND*%
X177760000Y-43180000D03*
%TD*%
D17*
%TO.P,J6,1,Pin_1*%
%TO.N,Net-(J5-Pin_4)*%
X186436000Y-110236000D03*
%TD*%
%TO.P,J4,1,Pin_1*%
%TO.N,Net-(D3-K)*%
X179070000Y-88138000D03*
%TD*%
D18*
%TO.P,C9,1*%
%TO.N,Net-(Q3-S)*%
X161290000Y-123190000D03*
%TO.P,C9,2*%
%TO.N,Net-(D3-K)*%
X161290000Y-108190000D03*
%TD*%
D12*
%TO.P,R4,1*%
%TO.N,Net-(Q3-G)*%
X147320000Y-123190000D03*
D13*
%TO.P,R4,2*%
%TO.N,Net-(U1-OUTB)*%
X154939999Y-123189999D03*
%TD*%
D12*
%TO.P,R7,1*%
%TO.N,Net-(J5-Pin_5)*%
X154940000Y-77470000D03*
D13*
%TO.P,R7,2*%
%TO.N,Net-(Q4-G)*%
X147319999Y-77469999D03*
%TD*%
D26*
%TO.P,R10,1*%
%TO.N,Net-(Q3-D)*%
X161290000Y-128270000D03*
D27*
%TO.P,R10,2*%
%TO.N,Net-(D4-K)*%
X181609999Y-128269999D03*
%TD*%
D21*
%TO.P,Q1,1,B*%
%TO.N,Net-(D2-K)*%
X148589999Y-58419999D03*
D22*
%TO.P,Q1,2,C*%
%TO.N,Net-(Q1-C)*%
X148589999Y-55879999D03*
%TO.P,Q1,3,E*%
%TO.N,+5V*%
X148589999Y-53339999D03*
%TD*%
D16*
%TO.P,R9,1*%
%TO.N,Net-(D3-K)*%
X186690000Y-118110000D03*
D11*
%TO.P,R9,2*%
%TO.N,Net-(Q3-D)*%
X186689999Y-133349999D03*
%TD*%
D12*
%TO.P,R5,1*%
%TO.N,Net-(U1-OUTB)*%
X154940000Y-125730000D03*
D13*
%TO.P,R5,2*%
%TO.N,GND*%
X147319999Y-125729999D03*
%TD*%
D28*
%TO.N,+12V*%
X184150000Y-77470000D03*
X174625000Y-52070000D03*
%TO.N,GND*%
X161925000Y-98806000D03*
X172085000Y-97155000D03*
X168402000Y-118110000D03*
X173990000Y-93345000D03*
X171450000Y-93345000D03*
X172212000Y-118110000D03*
X165735000Y-93345000D03*
X168910000Y-98806000D03*
%TO.N,Net-(Q3-S)*%
X154940000Y-114300000D03*
%TO.N,Net-(U1-OUTA)*%
X171450000Y-81280000D03*
%TO.N,Net-(U1-OUTB)*%
X170180000Y-112903000D03*
X163830000Y-96520000D03*
X170180000Y-96520000D03*
X170307000Y-104140000D03*
X166370000Y-82550000D03*
%TO.N,Net-(J5-Pin_3)*%
X184404000Y-64008000D03*
X187452000Y-66548000D03*
X184404000Y-57404000D03*
X187452000Y-79756000D03*
%TO.N,Net-(J5-Pin_5)*%
X165735000Y-76835000D03*
%TD*%
D29*
%TO.N,+12V*%
X170180000Y-60960000D02*
X175260000Y-66040000D01*
X178435000Y-73660000D02*
X180340000Y-73660000D01*
D30*
X174625000Y-52070000D02*
X175895000Y-50800000D01*
D29*
X177219600Y-50800000D02*
X179048400Y-48971200D01*
X175895000Y-50800000D02*
X170180000Y-56515000D01*
X170180000Y-56515000D02*
X170180000Y-60960000D01*
X175260000Y-66040000D02*
X175260000Y-66675000D01*
X180340000Y-73660000D02*
X184150000Y-77470000D01*
X175895000Y-50800000D02*
X177219600Y-50800000D01*
D30*
X170180000Y-56515000D02*
X174625000Y-52070000D01*
D31*
%TO.N,GND*%
X154305000Y-93345000D02*
X165735000Y-93345000D01*
X169164000Y-98806000D02*
X170434000Y-98806000D01*
X168910000Y-99060000D02*
X169164000Y-98806000D01*
X161671000Y-98806000D02*
X161925000Y-99060000D01*
X162179000Y-98806000D02*
X168656000Y-98806000D01*
X148519000Y-98806000D02*
X161671000Y-98806000D01*
D29*
X168402000Y-118110000D02*
X172212000Y-118110000D01*
D31*
X148519000Y-98806000D02*
X149479000Y-98806000D01*
X168656000Y-98806000D02*
X168910000Y-99060000D01*
X170434000Y-98806000D02*
X172085000Y-97155000D01*
X161925000Y-99060000D02*
X162179000Y-98806000D01*
X165735000Y-93345000D02*
X171450000Y-93345000D01*
X149479000Y-98806000D02*
X153035000Y-95250000D01*
X171450000Y-93345000D02*
X173990000Y-93345000D01*
D30*
%TO.N,Net-(U1-ENA)*%
X180340000Y-68025000D02*
X178515000Y-69850000D01*
X180340000Y-59055000D02*
X180340000Y-66675000D01*
X180340000Y-66675000D02*
X180340000Y-68025000D01*
%TO.N,Net-(D2-K)*%
X157560000Y-58420000D02*
X158830000Y-57150000D01*
X148590000Y-58420000D02*
X157560000Y-58420000D01*
X159385000Y-53340000D02*
X159385000Y-56515000D01*
D29*
%TO.N,+5V*%
X193040000Y-100076000D02*
X192024000Y-101092000D01*
X192024000Y-101092000D02*
X192024000Y-109768000D01*
D32*
X186690000Y-43180000D02*
X186690000Y-46990000D01*
D29*
X193040000Y-79756000D02*
X193040000Y-68955000D01*
D32*
X173355000Y-50165000D02*
X151130000Y-50165000D01*
X186690000Y-43180000D02*
X191770000Y-43180000D01*
D29*
X189865000Y-65780000D02*
X189865000Y-63240000D01*
X193040000Y-68955000D02*
X189865000Y-65780000D01*
D32*
X176530000Y-46990000D02*
X173355000Y-50165000D01*
X193040000Y-60960000D02*
X190500000Y-63500000D01*
X186690000Y-46990000D02*
X176530000Y-46990000D01*
X191770000Y-43180000D02*
X193040000Y-44450000D01*
D29*
X193040000Y-100076000D02*
X193040000Y-79756000D01*
D32*
X151130000Y-50165000D02*
X148590000Y-52705000D01*
X193040000Y-44450000D02*
X193040000Y-60960000D01*
D29*
X189992000Y-79756000D02*
X193040000Y-79756000D01*
D31*
%TO.N,Net-(Q3-S)*%
X156210000Y-114300000D02*
X161290000Y-119380000D01*
X148590000Y-114300000D02*
X154940000Y-114300000D01*
X154940000Y-114300000D02*
X156210000Y-114300000D01*
X161290000Y-123190000D02*
X161290000Y-119380000D01*
D29*
%TO.N,Net-(Q3-D)*%
X186690000Y-133350000D02*
X191770000Y-133350000D01*
X173990000Y-120650000D02*
X177800000Y-124460000D01*
X186690000Y-125730000D02*
X186690000Y-133350000D01*
X166490000Y-120650000D02*
X173990000Y-120650000D01*
X185420000Y-124460000D02*
X186690000Y-125730000D01*
X177800000Y-124460000D02*
X185420000Y-124460000D01*
D32*
%TO.N,Net-(Q4-D)*%
X162640000Y-63500000D02*
X167520000Y-63500000D01*
X148590000Y-71120000D02*
X155020000Y-71120000D01*
X155020000Y-71120000D02*
X162640000Y-63500000D01*
D30*
%TO.N,Net-(U2-FILTER)*%
X191262000Y-96774000D02*
X190500000Y-97536000D01*
X191262000Y-88900000D02*
X191262000Y-90932000D01*
X189992000Y-87630000D02*
X191262000Y-88900000D01*
X191262000Y-90932000D02*
X191262000Y-96774000D01*
%TO.N,Net-(D1-K)*%
X156845000Y-46990000D02*
X161290000Y-46990000D01*
X155575000Y-45720000D02*
X156845000Y-46990000D01*
X155575000Y-43180000D02*
X155575000Y-45720000D01*
D31*
%TO.N,Net-(D4-K)*%
X181610000Y-128270000D02*
X181610000Y-134620000D01*
D30*
%TO.N,Net-(Q2-G)*%
X148519000Y-106751000D02*
X147320000Y-107950000D01*
X148519000Y-103886000D02*
X148519000Y-106751000D01*
%TO.N,Net-(Q3-G)*%
X148590000Y-119380000D02*
X148590000Y-121920000D01*
X148590000Y-121920000D02*
X147320000Y-123190000D01*
%TO.N,Net-(Q4-G)*%
X148590000Y-76200000D02*
X147320000Y-77470000D01*
X148590000Y-73660000D02*
X148590000Y-76200000D01*
%TO.N,Net-(U1-OUTA)*%
X177800000Y-66675000D02*
X173990000Y-70485000D01*
X173990000Y-70485000D02*
X173990000Y-78740000D01*
X173990000Y-78740000D02*
X171450000Y-81280000D01*
%TO.N,Net-(U1-OUTB)*%
X172720000Y-66675000D02*
X172720000Y-76200000D01*
X154940000Y-125730000D02*
X154940000Y-123190000D01*
X172720000Y-76200000D02*
X166370000Y-82550000D01*
X170180000Y-104140000D02*
X170180000Y-112776000D01*
X163830000Y-96520000D02*
X170180000Y-96520000D01*
D32*
%TO.N,Net-(J3-Pin_1)*%
X160020000Y-71120000D02*
X165100000Y-71120000D01*
D30*
%TO.N,Net-(J5-Pin_1)*%
X183083200Y-57861200D02*
X182118000Y-56896000D01*
X177800000Y-59055000D02*
X177800000Y-57759600D01*
X177800000Y-57759600D02*
X178536600Y-57023000D01*
X183083200Y-59690000D02*
X183083200Y-57861200D01*
X178536600Y-57023000D02*
X181991000Y-57023000D01*
X181991000Y-57023000D02*
X182118000Y-56896000D01*
%TO.N,Net-(J5-Pin_2)*%
X172720000Y-57150000D02*
X173990000Y-55880000D01*
X184525000Y-55880000D02*
X189865000Y-50540000D01*
X173990000Y-55880000D02*
X184525000Y-55880000D01*
X172720000Y-59055000D02*
X172720000Y-57150000D01*
X172821600Y-55930800D02*
X172821600Y-58953400D01*
%TO.N,Net-(J5-Pin_3)*%
X187452000Y-79756000D02*
X187452000Y-66548000D01*
X184404000Y-57404000D02*
X184404000Y-64008000D01*
%TO.N,Net-(J5-Pin_4)*%
X183743600Y-96672400D02*
X185928000Y-94488000D01*
X185928000Y-94488000D02*
X185928000Y-56388000D01*
X185216800Y-109016800D02*
X185216800Y-100736400D01*
X183743600Y-99263200D02*
X183743600Y-96672400D01*
X186696000Y-55620000D02*
X189865000Y-55620000D01*
X185216800Y-100736400D02*
X183743600Y-99263200D01*
X185928000Y-56388000D02*
X186696000Y-55620000D01*
%TO.N,Net-(J5-Pin_5)*%
X154940000Y-77470000D02*
X156210000Y-76200000D01*
X147320000Y-80010000D02*
X152400000Y-80010000D01*
X152400000Y-80010000D02*
X154940000Y-77470000D01*
X156210000Y-76200000D02*
X165100000Y-76200000D01*
X165100000Y-76200000D02*
X165735000Y-76835000D01*
D31*
%TO.N,Net-(D3-K)*%
X158115000Y-85090000D02*
X176022000Y-85090000D01*
X161290000Y-108190000D02*
X163473349Y-108190000D01*
X156943200Y-86261800D02*
X158115000Y-85090000D01*
D29*
X161290000Y-111760000D02*
X165100000Y-115570000D01*
D31*
X148942200Y-86261800D02*
X156943200Y-86261800D01*
D32*
X179070000Y-83780000D02*
X179070000Y-88138000D01*
X179070000Y-88138000D02*
X179070000Y-92593349D01*
D31*
X148590000Y-86614000D02*
X148942200Y-86261800D01*
X176022000Y-85090000D02*
X179070000Y-88138000D01*
D29*
X191770000Y-118110000D02*
X186690000Y-118110000D01*
X165100000Y-115570000D02*
X184150000Y-115570000D01*
X184150000Y-115570000D02*
X186690000Y-118110000D01*
X161290000Y-108190000D02*
X161290000Y-111760000D01*
D31*
X163473349Y-108190000D02*
X179070000Y-92593349D01*
%TD*%
M02*
