M48
; DRILL file {KiCad (7.0.0)} date Sat Nov 23 19:37:09 2024
; FORMAT={-:-/ absolute / metric / decimal}
; #@! TF.CreationDate,2024-11-23T19:37:09-06:00
; #@! TF.GenerationSoftware,Kicad,Pcbnew,(7.0.0)
; #@! TF.FileFunction,Plated,1,2,PTH
FMAT,2
METRIC
; #@! TA.AperFunction,Plated,PTH,ViaDrill
T1C0.300
; #@! TA.AperFunction,Plated,PTH,ComponentDrill
T2C0.700
; #@! TA.AperFunction,Plated,PTH,ComponentDrill
T3C0.800
; #@! TA.AperFunction,Plated,PTH,ComponentDrill
T4C1.000
; #@! TA.AperFunction,Plated,PTH,ComponentDrill
T5C1.100
; #@! TA.AperFunction,Plated,PTH,ComponentDrill
T6C1.200
; #@! TA.AperFunction,Plated,PTH,ComponentDrill
T7C1.600
; #@! TA.AperFunction,Plated,PTH,ComponentDrill
T8C2.000
; #@! TA.AperFunction,Plated,PTH,ComponentDrill
T9C2.500
%
G90
G05
T1
X154.94Y-114.3
X161.925Y-98.806
X163.83Y-96.52
X165.735Y-76.835
X165.735Y-93.345
X166.37Y-82.55
X168.402Y-118.11
X168.91Y-98.806
X170.18Y-96.52
X170.18Y-112.903
X170.307Y-104.14
X171.45Y-81.28
X171.45Y-93.345
X172.085Y-97.155
X172.212Y-118.11
X173.99Y-93.345
X174.625Y-52.07
X184.15Y-77.47
X184.404Y-57.404
X184.404Y-64.008
X187.452Y-66.548
X187.452Y-79.756
T2
X147.32Y-77.47
X147.32Y-80.01
X147.32Y-107.95
X147.32Y-110.49
X147.32Y-123.19
X147.32Y-125.73
X154.94Y-77.47
X154.94Y-80.01
X154.94Y-107.95
X154.94Y-110.49
X154.94Y-123.19
X154.94Y-125.73
X172.822Y-48.311
X172.822Y-55.931
X183.083Y-52.07
X183.083Y-59.69
X183.642Y-90.932
X189.992Y-80.01
X189.992Y-87.63
X191.262Y-90.932
T3
X155.02Y-71.12
X155.575Y-43.18
X155.575Y-58.42
X159.465Y-57.15
X160.02Y-71.12
X161.29Y-46.99
X164.465Y-57.15
X165.775Y-41.91
X168.91Y-46.99
X170.775Y-41.91
X172.72Y-59.055
X172.72Y-66.675
X175.26Y-43.18
X175.26Y-59.055
X175.26Y-66.675
X177.76Y-43.18
X177.8Y-59.055
X177.8Y-66.675
X178.435Y-73.66
X178.515Y-69.85
X179.048Y-48.971
X179.07Y-78.78
X179.07Y-83.78
X179.07Y-92.593
X179.07Y-97.593
X180.34Y-59.055
X180.34Y-66.675
X183.435Y-73.66
X183.515Y-69.85
X184.048Y-48.971
X184.19Y-43.18
X185.5Y-97.536
X186.69Y-43.18
X186.69Y-118.11
X186.69Y-133.35
X190.5Y-97.536
X191.77Y-118.11
X191.77Y-133.35
X192.024Y-109.768
X192.024Y-114.768
T4
X189.865Y-48.0
X189.865Y-50.54
X189.865Y-53.08
X189.865Y-55.62
X189.865Y-58.16
X189.865Y-60.7
X189.865Y-63.24
X189.865Y-65.78
X189.865Y-68.32
X189.865Y-70.86
X189.865Y-73.4
X189.865Y-75.94
T5
X148.519Y-98.806
X148.519Y-101.346
X148.519Y-103.886
X148.59Y-53.34
X148.59Y-55.88
X148.59Y-58.42
X148.59Y-68.58
X148.59Y-71.12
X148.59Y-73.66
X148.59Y-84.074
X148.59Y-86.614
X148.59Y-89.154
X148.59Y-114.3
X148.59Y-116.84
X148.59Y-119.38
X152.52Y-63.5
X159.385Y-53.34
X161.29Y-108.19
X161.29Y-123.19
X166.49Y-120.65
X166.624Y-112.776
X167.52Y-63.5
X169.545Y-53.34
X181.49Y-120.65
X181.624Y-112.776
T6
X161.29Y-128.27
X181.61Y-128.27
T7
X165.1Y-134.62
X180.34Y-134.62
T8
X160.02Y-88.9
X170.18Y-88.9
T9
X154.305Y-93.345
X160.655Y-41.91
X165.1Y-71.12
X179.07Y-88.138
X186.436Y-110.236
T0
M30
