%TF.GenerationSoftware,KiCad,Pcbnew,(7.0.0)*%
%TF.CreationDate,2024-11-23T19:37:02-06:00*%
%TF.ProjectId,VP44expSwdriver,56503434-6578-4705-9377-647269766572,rev?*%
%TF.SameCoordinates,Original*%
%TF.FileFunction,Soldermask,Top*%
%TF.FilePolarity,Negative*%
%FSLAX46Y46*%
G04 Gerber Fmt 4.6, Leading zero omitted, Abs format (unit mm)*
G04 Created by KiCad (PCBNEW (7.0.0)) date 2024-11-23 19:37:02*
%MOMM*%
%LPD*%
G01*
G04 APERTURE LIST*
G04 Aperture macros list*
%AMRoundRect*
0 Rectangle with rounded corners*
0 $1 Rounding radius*
0 $2 $3 $4 $5 $6 $7 $8 $9 X,Y pos of 4 corners*
0 Add a 4 corners polygon primitive as box body*
4,1,4,$2,$3,$4,$5,$6,$7,$8,$9,$2,$3,0*
0 Add four circle primitives for the rounded corners*
1,1,$1+$1,$2,$3*
1,1,$1+$1,$4,$5*
1,1,$1+$1,$6,$7*
1,1,$1+$1,$8,$9*
0 Add four rect primitives between the rounded corners*
20,1,$1+$1,$2,$3,$4,$5,0*
20,1,$1+$1,$4,$5,$6,$7,0*
20,1,$1+$1,$6,$7,$8,$9,0*
20,1,$1+$1,$8,$9,$2,$3,0*%
G04 Aperture macros list end*
%ADD10R,1.600000X1.600000*%
%ADD11O,1.600000X1.600000*%
%ADD12C,1.400000*%
%ADD13O,1.400000X1.400000*%
%ADD14R,3.200000X3.200000*%
%ADD15O,3.200000X3.200000*%
%ADD16C,3.200000*%
%ADD17C,1.600000*%
%ADD18RoundRect,0.250002X-1.699998X-1.699998X1.699998X-1.699998X1.699998X1.699998X-1.699998X1.699998X0*%
%ADD19C,2.200000*%
%ADD20R,2.200000X2.200000*%
%ADD21O,2.200000X2.200000*%
%ADD22R,2.000000X1.905000*%
%ADD23O,2.000000X1.905000*%
%ADD24R,1.700000X1.700000*%
%ADD25O,1.700000X1.700000*%
%ADD26R,4.000000X4.000000*%
%ADD27C,2.400000*%
%ADD28O,2.400000X2.400000*%
G04 APERTURE END LIST*
D10*
%TO.C,U1*%
X180339999Y-59054999D03*
D11*
X177799999Y-59054999D03*
X175259999Y-59054999D03*
X172719999Y-59054999D03*
X172719999Y-66674999D03*
X175259999Y-66674999D03*
X177799999Y-66674999D03*
X180339999Y-66674999D03*
%TD*%
D12*
%TO.C,R3*%
X154940000Y-110490000D03*
D13*
X147319999Y-110489999D03*
%TD*%
D14*
%TO.C,D4*%
X180339999Y-134619999D03*
D15*
X165099999Y-134619999D03*
%TD*%
D16*
%TO.C,MH1*%
X149809200Y-134213600D03*
%TD*%
D17*
%TO.C,F3*%
X155020000Y-71120000D03*
X160020000Y-71120000D03*
%TD*%
D18*
%TO.C,J2*%
X160655000Y-41910000D03*
%TD*%
D17*
%TO.C,C14*%
X190500000Y-97536000D03*
X185500000Y-97536000D03*
%TD*%
%TO.C,C1*%
X184048400Y-48971200D03*
X179048400Y-48971200D03*
%TD*%
D19*
%TO.C,C11*%
X166490000Y-120650000D03*
X181490000Y-120650000D03*
%TD*%
D10*
%TO.C,C7*%
X179069999Y-83779999D03*
D17*
X179070000Y-78780000D03*
%TD*%
%TO.C,C13*%
X192024000Y-109768000D03*
X192024000Y-114768000D03*
%TD*%
%TO.C,R6*%
X191770000Y-118110000D03*
D11*
X191769999Y-133349999D03*
%TD*%
D20*
%TO.C,D2*%
X159384999Y-53339999D03*
D21*
X169544999Y-53339999D03*
%TD*%
D17*
%TO.C,C4*%
X178435000Y-73660000D03*
X183435000Y-73660000D03*
%TD*%
%TO.C,C5*%
X164465000Y-57150000D03*
X159465000Y-57150000D03*
%TD*%
D12*
%TO.C,R11*%
X189992000Y-80010000D03*
D13*
X189991999Y-87629999D03*
%TD*%
D16*
%TO.C,MH2*%
X149860000Y-42062400D03*
%TD*%
D19*
%TO.C,C10*%
X166624000Y-112776000D03*
X181624000Y-112776000D03*
%TD*%
D22*
%TO.C,Q2*%
X148518999Y-103885999D03*
D23*
X148518999Y-101345999D03*
X148518999Y-98805999D03*
%TD*%
D17*
%TO.C,C3*%
X183515000Y-69850000D03*
X178515000Y-69850000D03*
%TD*%
D10*
%TO.C,C6*%
X179069999Y-92593348D03*
D17*
X179070000Y-97593349D03*
%TD*%
D24*
%TO.C,J5*%
X189864999Y-47999999D03*
D25*
X189864999Y-50539999D03*
X189864999Y-53079999D03*
X189864999Y-55619999D03*
X189864999Y-58159999D03*
X189864999Y-60699999D03*
X189864999Y-63239999D03*
X189864999Y-65779999D03*
X189864999Y-68319999D03*
X189864999Y-70859999D03*
X189864999Y-73399999D03*
X189864999Y-75939999D03*
%TD*%
D12*
%TO.C,R8*%
X147320000Y-80010000D03*
D13*
X154939999Y-80009999D03*
%TD*%
D19*
%TO.C,C12*%
X152520000Y-63500000D03*
X167520000Y-63500000D03*
%TD*%
D12*
%TO.C,R2*%
X147320000Y-107950000D03*
D13*
X154939999Y-107949999D03*
%TD*%
D22*
%TO.C,D3*%
X148589999Y-89153999D03*
D23*
X148589999Y-86613999D03*
X148589999Y-84073999D03*
%TD*%
D18*
%TO.C,J3*%
X165100000Y-71120000D03*
%TD*%
D22*
%TO.C,Q3*%
X148589999Y-119379999D03*
D23*
X148589999Y-116839999D03*
X148589999Y-114299999D03*
%TD*%
D18*
%TO.C,J1*%
X154305000Y-93345000D03*
%TD*%
D26*
%TO.C,L1*%
X170179999Y-88899999D03*
X160019999Y-88899999D03*
%TD*%
D17*
%TO.C,F2*%
X165775000Y-41910000D03*
X170775000Y-41910000D03*
%TD*%
D22*
%TO.C,Q4*%
X148589999Y-73659999D03*
D23*
X148589999Y-71119999D03*
X148589999Y-68579999D03*
%TD*%
D12*
%TO.C,R13*%
X183083200Y-59690000D03*
D13*
X183083199Y-52069999D03*
%TD*%
D17*
%TO.C,R1*%
X155575000Y-43180000D03*
D11*
X155574999Y-58419999D03*
%TD*%
D12*
%TO.C,R12*%
X191262000Y-90932000D03*
D13*
X183641999Y-90931999D03*
%TD*%
D10*
%TO.C,C8*%
X186689999Y-43179999D03*
D17*
X184190000Y-43180000D03*
%TD*%
D12*
%TO.C,R14*%
X172821600Y-55930800D03*
D13*
X172821599Y-48310799D03*
%TD*%
D10*
%TO.C,D1*%
X161289999Y-46989999D03*
D11*
X168909999Y-46989999D03*
%TD*%
D10*
%TO.C,C2*%
X175259999Y-43179999D03*
D17*
X177760000Y-43180000D03*
%TD*%
D18*
%TO.C,J6*%
X186436000Y-110236000D03*
%TD*%
%TO.C,J4*%
X179070000Y-88138000D03*
%TD*%
D19*
%TO.C,C9*%
X161290000Y-123190000D03*
X161290000Y-108190000D03*
%TD*%
D12*
%TO.C,R4*%
X147320000Y-123190000D03*
D13*
X154939999Y-123189999D03*
%TD*%
D12*
%TO.C,R7*%
X154940000Y-77470000D03*
D13*
X147319999Y-77469999D03*
%TD*%
D27*
%TO.C,R10*%
X161290000Y-128270000D03*
D28*
X181609999Y-128269999D03*
%TD*%
D22*
%TO.C,Q1*%
X148589999Y-58419999D03*
D23*
X148589999Y-55879999D03*
X148589999Y-53339999D03*
%TD*%
D17*
%TO.C,R9*%
X186690000Y-118110000D03*
D11*
X186689999Y-133349999D03*
%TD*%
D12*
%TO.C,R5*%
X154940000Y-125730000D03*
D13*
X147319999Y-125729999D03*
%TD*%
M02*
