%TF.GenerationSoftware,KiCad,Pcbnew,(7.0.0)*%
%TF.CreationDate,2024-11-23T19:37:02-06:00*%
%TF.ProjectId,VP44expSwdriver,56503434-6578-4705-9377-647269766572,rev?*%
%TF.SameCoordinates,Original*%
%TF.FileFunction,Soldermask,Bot*%
%TF.FilePolarity,Negative*%
%FSLAX46Y46*%
G04 Gerber Fmt 4.6, Leading zero omitted, Abs format (unit mm)*
G04 Created by KiCad (PCBNEW (7.0.0)) date 2024-11-23 19:37:02*
%MOMM*%
%LPD*%
G01*
G04 APERTURE LIST*
G04 Aperture macros list*
%AMRoundRect*
0 Rectangle with rounded corners*
0 $1 Rounding radius*
0 $2 $3 $4 $5 $6 $7 $8 $9 X,Y pos of 4 corners*
0 Add a 4 corners polygon primitive as box body*
4,1,4,$2,$3,$4,$5,$6,$7,$8,$9,$2,$3,0*
0 Add four circle primitives for the rounded corners*
1,1,$1+$1,$2,$3*
1,1,$1+$1,$4,$5*
1,1,$1+$1,$6,$7*
1,1,$1+$1,$8,$9*
0 Add four rect primitives between the rounded corners*
20,1,$1+$1,$2,$3,$4,$5,0*
20,1,$1+$1,$4,$5,$6,$7,0*
20,1,$1+$1,$6,$7,$8,$9,0*
20,1,$1+$1,$8,$9,$2,$3,0*%
G04 Aperture macros list end*
%ADD10R,1.600000X1.600000*%
%ADD11O,1.600000X1.600000*%
%ADD12C,1.400000*%
%ADD13O,1.400000X1.400000*%
%ADD14R,3.200000X3.200000*%
%ADD15O,3.200000X3.200000*%
%ADD16C,3.200000*%
%ADD17C,1.600000*%
%ADD18RoundRect,0.250002X-1.699998X-1.699998X1.699998X-1.699998X1.699998X1.699998X-1.699998X1.699998X0*%
%ADD19C,2.200000*%
%ADD20R,2.200000X2.200000*%
%ADD21O,2.200000X2.200000*%
%ADD22R,2.000000X1.905000*%
%ADD23O,2.000000X1.905000*%
%ADD24R,1.700000X1.700000*%
%ADD25O,1.700000X1.700000*%
%ADD26R,4.000000X4.000000*%
%ADD27C,2.400000*%
%ADD28O,2.400000X2.400000*%
%ADD29RoundRect,0.150000X-0.825000X-0.150000X0.825000X-0.150000X0.825000X0.150000X-0.825000X0.150000X0*%
G04 APERTURE END LIST*
D10*
%TO.C,U1*%
X180339999Y-59054999D03*
D11*
X177799999Y-59054999D03*
X175259999Y-59054999D03*
X172719999Y-59054999D03*
X172719999Y-66674999D03*
X175259999Y-66674999D03*
X177799999Y-66674999D03*
X180339999Y-66674999D03*
%TD*%
D12*
%TO.C,R3*%
X154940000Y-110490000D03*
D13*
X147319999Y-110489999D03*
%TD*%
D14*
%TO.C,D4*%
X180339999Y-134619999D03*
D15*
X165099999Y-134619999D03*
%TD*%
D16*
%TO.C,MH1*%
X149809200Y-134213600D03*
%TD*%
D17*
%TO.C,F3*%
X155020000Y-71120000D03*
X160020000Y-71120000D03*
%TD*%
D18*
%TO.C,J2*%
X160655000Y-41910000D03*
%TD*%
D17*
%TO.C,C14*%
X190500000Y-97536000D03*
X185500000Y-97536000D03*
%TD*%
%TO.C,C1*%
X184048400Y-48971200D03*
X179048400Y-48971200D03*
%TD*%
D19*
%TO.C,C11*%
X166490000Y-120650000D03*
X181490000Y-120650000D03*
%TD*%
D10*
%TO.C,C7*%
X179069999Y-83779999D03*
D17*
X179070000Y-78780000D03*
%TD*%
%TO.C,C13*%
X192024000Y-109768000D03*
X192024000Y-114768000D03*
%TD*%
%TO.C,R6*%
X191770000Y-118110000D03*
D11*
X191769999Y-133349999D03*
%TD*%
D20*
%TO.C,D2*%
X159384999Y-53339999D03*
D21*
X169544999Y-53339999D03*
%TD*%
D17*
%TO.C,C4*%
X178435000Y-73660000D03*
X183435000Y-73660000D03*
%TD*%
%TO.C,C5*%
X164465000Y-57150000D03*
X159465000Y-57150000D03*
%TD*%
D12*
%TO.C,R11*%
X189992000Y-80010000D03*
D13*
X189991999Y-87629999D03*
%TD*%
D16*
%TO.C,MH2*%
X149860000Y-42062400D03*
%TD*%
D19*
%TO.C,C10*%
X166624000Y-112776000D03*
X181624000Y-112776000D03*
%TD*%
D22*
%TO.C,Q2*%
X148518999Y-103885999D03*
D23*
X148518999Y-101345999D03*
X148518999Y-98805999D03*
%TD*%
D17*
%TO.C,C3*%
X183515000Y-69850000D03*
X178515000Y-69850000D03*
%TD*%
D10*
%TO.C,C6*%
X179069999Y-92593348D03*
D17*
X179070000Y-97593349D03*
%TD*%
D24*
%TO.C,J5*%
X189864999Y-47999999D03*
D25*
X189864999Y-50539999D03*
X189864999Y-53079999D03*
X189864999Y-55619999D03*
X189864999Y-58159999D03*
X189864999Y-60699999D03*
X189864999Y-63239999D03*
X189864999Y-65779999D03*
X189864999Y-68319999D03*
X189864999Y-70859999D03*
X189864999Y-73399999D03*
X189864999Y-75939999D03*
%TD*%
D12*
%TO.C,R8*%
X147320000Y-80010000D03*
D13*
X154939999Y-80009999D03*
%TD*%
D19*
%TO.C,C12*%
X152520000Y-63500000D03*
X167520000Y-63500000D03*
%TD*%
D12*
%TO.C,R2*%
X147320000Y-107950000D03*
D13*
X154939999Y-107949999D03*
%TD*%
D22*
%TO.C,D3*%
X148589999Y-89153999D03*
D23*
X148589999Y-86613999D03*
X148589999Y-84073999D03*
%TD*%
D18*
%TO.C,J3*%
X165100000Y-71120000D03*
%TD*%
D22*
%TO.C,Q3*%
X148589999Y-119379999D03*
D23*
X148589999Y-116839999D03*
X148589999Y-114299999D03*
%TD*%
D18*
%TO.C,J1*%
X154305000Y-93345000D03*
%TD*%
D26*
%TO.C,L1*%
X170179999Y-88899999D03*
X160019999Y-88899999D03*
%TD*%
D17*
%TO.C,F2*%
X165775000Y-41910000D03*
X170775000Y-41910000D03*
%TD*%
D22*
%TO.C,Q4*%
X148589999Y-73659999D03*
D23*
X148589999Y-71119999D03*
X148589999Y-68579999D03*
%TD*%
D12*
%TO.C,R13*%
X183083200Y-59690000D03*
D13*
X183083199Y-52069999D03*
%TD*%
D17*
%TO.C,R1*%
X155575000Y-43180000D03*
D11*
X155574999Y-58419999D03*
%TD*%
D12*
%TO.C,R12*%
X191262000Y-90932000D03*
D13*
X183641999Y-90931999D03*
%TD*%
D10*
%TO.C,C8*%
X186689999Y-43179999D03*
D17*
X184190000Y-43180000D03*
%TD*%
D12*
%TO.C,R14*%
X172821600Y-55930800D03*
D13*
X172821599Y-48310799D03*
%TD*%
D10*
%TO.C,D1*%
X161289999Y-46989999D03*
D11*
X168909999Y-46989999D03*
%TD*%
D10*
%TO.C,C2*%
X175259999Y-43179999D03*
D17*
X177760000Y-43180000D03*
%TD*%
D18*
%TO.C,J6*%
X186436000Y-110236000D03*
%TD*%
%TO.C,J4*%
X179070000Y-88138000D03*
%TD*%
D19*
%TO.C,C9*%
X161290000Y-123190000D03*
X161290000Y-108190000D03*
%TD*%
D12*
%TO.C,R4*%
X147320000Y-123190000D03*
D13*
X154939999Y-123189999D03*
%TD*%
D12*
%TO.C,R7*%
X154940000Y-77470000D03*
D13*
X147319999Y-77469999D03*
%TD*%
D27*
%TO.C,R10*%
X161290000Y-128270000D03*
D28*
X181609999Y-128269999D03*
%TD*%
D22*
%TO.C,Q1*%
X148589999Y-58419999D03*
D23*
X148589999Y-55879999D03*
X148589999Y-53339999D03*
%TD*%
D17*
%TO.C,R9*%
X186690000Y-118110000D03*
D11*
X186689999Y-133349999D03*
%TD*%
D12*
%TO.C,R5*%
X154940000Y-125730000D03*
D13*
X147319999Y-125729999D03*
%TD*%
D29*
%TO.C,U2*%
X182945000Y-105410000D03*
X182945000Y-104140000D03*
X182945000Y-102870000D03*
X182945000Y-101600000D03*
X187895000Y-101600000D03*
X187895000Y-102870000D03*
X187895000Y-104140000D03*
X187895000Y-105410000D03*
%TD*%
G36*
X182459899Y-101312391D02*
G01*
X182505425Y-101359199D01*
X182520860Y-101422643D01*
X182477034Y-103000375D01*
X182458764Y-103061797D01*
X182412269Y-103105895D01*
X182349967Y-103120893D01*
X177430848Y-102997297D01*
X177419796Y-102999143D01*
X177410225Y-103004967D01*
X167777463Y-111751956D01*
X167770625Y-111761587D01*
X167773518Y-111773039D01*
X167841589Y-111909180D01*
X167854619Y-111960760D01*
X167844836Y-112013054D01*
X167814039Y-112056434D01*
X166540272Y-113213073D01*
X166535764Y-113216973D01*
X166524120Y-113226567D01*
X166514567Y-113233696D01*
X166504533Y-113240458D01*
X166494335Y-113246639D01*
X166483696Y-113252407D01*
X166472961Y-113257576D01*
X166461830Y-113262291D01*
X166450635Y-113266410D01*
X166439079Y-113270041D01*
X166427565Y-113273060D01*
X166415734Y-113275562D01*
X166403952Y-113277466D01*
X166391935Y-113278819D01*
X166380039Y-113279582D01*
X166367943Y-113279775D01*
X166356033Y-113279393D01*
X166343962Y-113278423D01*
X166332144Y-113276898D01*
X166320234Y-113274776D01*
X166308607Y-113272123D01*
X166296964Y-113268869D01*
X166285654Y-113265113D01*
X166274366Y-113260752D01*
X166263459Y-113255923D01*
X166252641Y-113250497D01*
X166242262Y-113244651D01*
X166232021Y-113238216D01*
X166222242Y-113231395D01*
X166212657Y-113223999D01*
X166203578Y-113216269D01*
X166194761Y-113207999D01*
X166186472Y-113199439D01*
X166178479Y-113190349D01*
X166171049Y-113181032D01*
X166163970Y-113171223D01*
X166157464Y-113161228D01*
X166151357Y-113150779D01*
X166145841Y-113140204D01*
X166140770Y-113129225D01*
X166136302Y-113118189D01*
X166132303Y-113106762D01*
X166128908Y-113095322D01*
X166126030Y-113083580D01*
X166123753Y-113071890D01*
X166122013Y-113059914D01*
X166120868Y-113048043D01*
X166120143Y-113032971D01*
X166120000Y-113027013D01*
X166120000Y-110643479D01*
X166134820Y-110584693D01*
X166175739Y-110539959D01*
X166232975Y-110519970D01*
X166292846Y-110529505D01*
X166355853Y-110556508D01*
X166367193Y-110558314D01*
X166370000Y-110547182D01*
X166370000Y-110291309D01*
X166380754Y-110240797D01*
X166411152Y-110199047D01*
X176291455Y-101326938D01*
X176329944Y-101303406D01*
X176374303Y-101295200D01*
X182396908Y-101295200D01*
X182459899Y-101312391D01*
G37*
G36*
X171956616Y-87136747D02*
G01*
X172001316Y-87177481D01*
X172021433Y-87234513D01*
X172012182Y-87294277D01*
X166892963Y-99405597D01*
X166873550Y-99437248D01*
X166845636Y-99461732D01*
X158763133Y-104639586D01*
X158753498Y-104649912D01*
X158750000Y-104663598D01*
X158750000Y-112089638D01*
X158740561Y-112137091D01*
X158713681Y-112177319D01*
X155483576Y-115407423D01*
X155444177Y-115433956D01*
X155397692Y-115443729D01*
X146810797Y-115568177D01*
X146748040Y-115552171D01*
X146701914Y-115506708D01*
X146685000Y-115444190D01*
X146685000Y-113156016D01*
X146701948Y-113093440D01*
X146748158Y-113047968D01*
X146811000Y-113032032D01*
X154545994Y-113156790D01*
X154557920Y-113154461D01*
X154567876Y-113147489D01*
X156329211Y-111260344D01*
X156335034Y-111251206D01*
X156337190Y-111240586D01*
X156462916Y-103697030D01*
X156478063Y-103639677D01*
X156518116Y-103595922D01*
X164832534Y-98052976D01*
X164853237Y-98029524D01*
X168268116Y-91199767D01*
X168274533Y-91170614D01*
X168155719Y-87249756D01*
X168171045Y-87186181D01*
X168216581Y-87139244D01*
X168279662Y-87122000D01*
X171897966Y-87122000D01*
X171956616Y-87136747D01*
G37*
G36*
X155666099Y-93147665D02*
G01*
X155721614Y-93184332D01*
X155750187Y-93244415D01*
X155743592Y-93310618D01*
X154949449Y-95352700D01*
X154921561Y-95395438D01*
X150783431Y-99533568D01*
X150745315Y-99559550D01*
X150700339Y-99569802D01*
X147466933Y-99689558D01*
X147414276Y-99679947D01*
X147370576Y-99649038D01*
X147343976Y-99602588D01*
X147339432Y-99549255D01*
X147560481Y-97891391D01*
X147580521Y-97838545D01*
X147621932Y-97800082D01*
X147676111Y-97783993D01*
X149721479Y-97663677D01*
X149732096Y-97661029D01*
X149741029Y-97654711D01*
X153644714Y-93625101D01*
X153705375Y-93590676D01*
X155599622Y-93144971D01*
X155666099Y-93147665D01*
G37*
G36*
X166542846Y-110364657D02*
G01*
X167481977Y-110767141D01*
X167486926Y-110769392D01*
X167499331Y-110775365D01*
X167508927Y-110780516D01*
X167518424Y-110786165D01*
X167527522Y-110792132D01*
X167536489Y-110798593D01*
X167545027Y-110805333D01*
X167553384Y-110812547D01*
X167561303Y-110820014D01*
X167569000Y-110827938D01*
X167576225Y-110836061D01*
X167583197Y-110844627D01*
X167589697Y-110853370D01*
X167595893Y-110862519D01*
X167601592Y-110871785D01*
X167608286Y-110883822D01*
X167610825Y-110888634D01*
X167917697Y-111502378D01*
X167930727Y-111553957D01*
X167920944Y-111606251D01*
X167890148Y-111649631D01*
X167777463Y-111751956D01*
X167770625Y-111761587D01*
X167773518Y-111773037D01*
X167853127Y-111932254D01*
X167866118Y-111982724D01*
X167857223Y-112034075D01*
X167828014Y-112077236D01*
X161833972Y-117821527D01*
X161794408Y-117847059D01*
X161748176Y-117856000D01*
X146928920Y-117856000D01*
X146869035Y-117840581D01*
X146824043Y-117798158D01*
X146805134Y-117739282D01*
X146692722Y-115828282D01*
X146706775Y-115763253D01*
X146752417Y-115714848D01*
X146816508Y-115697000D01*
X161023601Y-115697000D01*
X161035029Y-115694691D01*
X161044661Y-115688132D01*
X166085740Y-110527027D01*
X166126562Y-110499290D01*
X166174968Y-110489672D01*
X166223293Y-110499697D01*
X166355853Y-110556508D01*
X166367193Y-110558314D01*
X166370000Y-110547182D01*
X166370000Y-110478631D01*
X166384820Y-110419845D01*
X166425739Y-110375111D01*
X166482975Y-110355122D01*
X166542846Y-110364657D01*
G37*
G36*
X182564000Y-103851813D02*
G01*
X182609387Y-103897200D01*
X182626000Y-103959200D01*
X182626000Y-107986701D01*
X182628738Y-107998588D01*
X182639782Y-108003768D01*
X185830109Y-108690916D01*
X185880518Y-108714560D01*
X185915499Y-108757878D01*
X185928000Y-108812136D01*
X185928000Y-111065044D01*
X185913258Y-111123683D01*
X185872539Y-111168380D01*
X185815523Y-111188507D01*
X185755767Y-111179279D01*
X181433299Y-109354237D01*
X181392916Y-109326739D01*
X181366290Y-109285775D01*
X181357553Y-109237706D01*
X181455346Y-103956904D01*
X181472711Y-103895879D01*
X181517989Y-103851432D01*
X181579325Y-103835200D01*
X182502000Y-103835200D01*
X182564000Y-103851813D01*
G37*
G36*
X160976735Y-87264963D02*
G01*
X161021925Y-87308742D01*
X161039812Y-87369065D01*
X161288339Y-95197700D01*
X161280118Y-95246195D01*
X161253691Y-95287678D01*
X154595577Y-102197043D01*
X154554798Y-102225117D01*
X154506287Y-102235000D01*
X147706542Y-102235000D01*
X147642175Y-102216985D01*
X147596510Y-102168175D01*
X147582817Y-102102752D01*
X147693283Y-100445752D01*
X147712477Y-100387297D01*
X147757406Y-100345264D01*
X147817008Y-100330000D01*
X153403432Y-100330000D01*
X153414985Y-100327633D01*
X153424685Y-100320910D01*
X158868808Y-94623572D01*
X158874875Y-94614148D01*
X158877000Y-94603143D01*
X158877000Y-87373000D01*
X158893613Y-87311000D01*
X158939000Y-87265613D01*
X159001000Y-87249000D01*
X160915874Y-87249000D01*
X160976735Y-87264963D01*
G37*
M02*
